<?xml version="1.0" encoding="UTF-8" standalone="no"?>
<svg width="60px" height="60px" viewBox="0 0 60 60" version="1.1" xmlns="http://www.w3.org/2000/svg" xmlns:xlink="http://www.w3.org/1999/xlink">
    <!-- Generator: Sketch 3.8.3 (29802) - http://www.bohemiancoding.com/sketch -->
    <title>Shape</title>
    <desc>Created with Sketch.</desc>
    <defs></defs>
    <g id="Welcome" stroke="none" stroke-width="1" fill="none" fill-rule="evenodd">
        <g id="Despacho-Desktop" transform="translate(-67.000000, -40.000000)" fill="#FFFFFF">
            <g id="Header" transform="translate(5.000000, 0.000000)">
                <g id="Logo" transform="translate(42.000000, 20.000000)">
                    <path d="M50,32.8571429 C46.4428571,32.8571429 43.5714286,29.9857143 43.5714286,26.4285714 C43.5714286,22.8714286 46.4428571,20 50,20 C53.5571429,20 56.4285714,22.8714286 56.4285714,26.4285714 C56.4285714,29.9857143 53.5571429,32.8571429 50,32.8571429 L50,32.8571429 Z M80,58.5714286 C80,63.3285714 76.1857143,67.1428571 71.4285714,67.1428571 L67.1428571,67.1428571 C62.3857143,67.1428571 58.5714286,63.3285714 58.5714286,58.5714286 L67.1428571,41.4285714 L62.8571429,41.4285714 C60.5,41.4285714 58.5714286,39.5 58.5714286,37.1428571 L54.2857143,37.1428571 L54.2857143,71.4285714 C56.0857143,71.4285714 58.5714286,73.3571429 58.5714286,75.7142857 L62.8571429,75.7142857 C64.6571429,75.7142857 67.1428571,77.6428571 67.1428571,80 L32.8571429,80 C32.8571429,77.6428571 35.3428571,75.7142857 37.1428571,75.7142857 L41.4285714,75.7142857 C41.4285714,73.3571429 43.9142857,71.4285714 45.7142857,71.4285714 L45.8428571,71.4285714 L45.7142857,37.1428571 L41.4285714,37.1428571 C41.4285714,39.5 39.5,41.4285714 37.1428571,41.4285714 L32.8571429,41.4285714 L41.4285714,58.5714286 C41.4285714,63.3285714 37.6142857,67.1428571 32.8571429,67.1428571 L28.5714286,67.1428571 C23.8142857,67.1428571 20,63.3285714 20,58.5714286 L28.5714286,41.4285714 L24.2857143,41.4285714 L24.2857143,37.1428571 L37.1428571,37.1428571 C37.1428571,34.7857143 39.0714286,32.8571429 41.4285714,32.8571429 L58.5714286,32.8571429 C60.9285714,32.8571429 62.8571429,34.7857143 62.8571429,37.1428571 L75.7142857,37.1428571 L75.7142857,41.4285714 L71.4285714,41.4285714 L80,58.5714286 L80,58.5714286 Z M30.7142857,45.7142857 L24.2857143,58.5714286 L37.1428571,58.5714286 L30.7142857,45.7142857 L30.7142857,45.7142857 Z M75.7142857,58.5714286 L69.2857143,45.7142857 L62.8571429,58.5714286 L75.7142857,58.5714286 L75.7142857,58.5714286 Z" id="Shape"></path>
                </g>
            </g>
        </g>
    </g>
</svg>